<?xml version="1.0" encoding="utf-8"?>
<!-- Generator: Adobe Illustrator 27.4.0, SVG Export Plug-In . SVG Version: 6.00 Build 0)  -->
<svg width="125" version="1.1" id="레이어_1" xmlns="http://www.w3.org/2000/svg" xmlns:xlink="http://www.w3.org/1999/xlink" x="0px"
	 y="0px" viewBox="0 0 160.8 50" style="enable-background:new 0 0 160.8 50;" xml:space="preserve">
<style type="text/css">
	.st0{fill:#231815;}
	.st1{font-family:'Arial-BoldMT';}
	.st2{font-size:32px;}
	.st3{fill:#F7ECDC;stroke:#F7ECDC;}
	.st4{fill:#9ED1D9;stroke:#9ED1D9;}
	.st5{fill:#F5A282;stroke:#F5A282;}
	.st6{fill:#F7D5AC;stroke:#F7D5AC;}
	.st7{fill:#C9E2F2;stroke:#C9E2F2;}
</style>
<text transform="matrix(1 0 0 1 30.7335 36.0427)" class="st0 st1 st2">ICONDB</text>
<path id="svg_6" class="st3" d="M21.8,25.1L21.8,25.1c-4,4.5-10.3,5.5-14.1,2.1C4,23.9,4.2,17.5,8.2,13l0,0c-0.7,4,0.5,7.8,3.2,10.2
	S17.9,26.3,21.8,25.1z"/>
<path id="svg_10" class="st4" d="M21.4,23.8L21.4,23.8c-6,0-10.9-4.1-10.9-9.1s4.9-9.1,10.9-9.1l0,0C18,7.7,16,11.1,16,14.7
	S18,21.6,21.4,23.8z"/>
<path id="svg_11" class="st5" d="M23.9,25.8L23.9,25.8c4.3,4.3,4.8,10.6,1.2,14.2s-9.9,3-14.2-1.3l0,0c4,0.9,7.8,0,10.3-2.5
	S24.8,29.8,23.9,25.8z"/>
<path id="svg_13" class="st6" d="M22.6,26L22.6,26c0,6-4,11-9,11s-9.2-4.8-9.2-10.9l0,0c2.2,3.4,5.6,5.4,9.2,5.4S20.5,29.4,22.6,26z
	"/>
<path id="svg_14" class="st7" d="M21.3,23.8L21.3,23.8c-6,0-10.9-4.1-10.9-9.1s4.9-9.1,10.9-9.1l0,0c-3.4,2.2-5.5,5.5-5.5,9.1
	S17.9,21.6,21.3,23.8z"/>
</svg>
