<svg width="110" height="50" xmlns="http://www.w3.org/2000/svg">
 <g>
  <title>Layer 1</title>
  <path fill="#000000" stroke="#32320F" opacity="NaN" d="m78.26923,-30.57692l44.42308,0" id="svg_8"/>
  <text xml:space="preserve" text-anchor="start" font-family="'Assistant'" font-size="24" id="svg_1" y="32.04265" x="30.73349" stroke-width="0" stroke="#000" fill="#000000">IconDB</text>
  <path transform="rotate(-48.2834 11.3552 23.1506)" stroke="#f7ecdc" id="svg_6" d="m16.82969,32.27473l0,0c-6.04637,0 -10.9489,-4.08427 -10.9489,-9.12409c0,-5.03917 4.90253,-9.12409 10.9489,-9.12409l0,0c-3.44583,2.15383 -5.47407,5.53437 -5.47407,9.12409s2.02824,6.96961 5.47407,9.12409z" fill="#f7ecdc"/>
  <path stroke="#9ed1d9" id="svg_10" d="m21.44105,23.78413l0,0c-6.04638,0 -10.9489,-4.08427 -10.9489,-9.12408c0,-5.03917 4.90252,-9.12409 10.9489,-9.12409l0,0c-3.44583,2.15383 -5.47408,5.53437 -5.47408,9.12409s2.02825,6.96961 5.47408,9.12408z" fill="#9ed1d9"/>
  <path transform="rotate(-134.825 21.3236 36.1384)" stroke="#f5a282" id="svg_11" d="m26.79807,45.26244l0,0c-6.04638,0 -10.9489,-4.08427 -10.9489,-9.12408c0,-5.03917 4.90252,-9.12409 10.9489,-9.12409l0,0c-3.44583,2.15383 -5.47408,5.53437 -5.47408,9.12409s2.02825,6.96961 5.47408,9.12408z" fill="#f5a282"/>
  <path transform="rotate(-90.4203 13.511 31.5267)" stroke="#f7d5ac" id="svg_13" d="m18.98542,40.65077l0,0c-6.04638,0 -10.9489,-4.08428 -10.9489,-9.12409c0,-5.03916 4.90252,-9.12408 10.9489,-9.12408l0,0c-3.44583,2.15383 -5.47408,5.53436 -5.47408,9.12408s2.02825,6.96961 5.47408,9.12409z" fill="#f7d5ac"/>
  <path stroke="#c9e2f2" id="svg_14" d="m21.31447,23.78413l0,0c-6.04638,0 -10.9489,-4.08427 -10.9489,-9.12408c0,-5.03917 4.90252,-9.12409 10.9489,-9.12409l0,0c-3.44583,2.15383 -5.47408,5.53437 -5.47408,9.12409s2.02825,6.96961 5.47408,9.12408z" fill="#c9e2f2"/>
 </g>

</svg>