<svg width="50" height="50" xmlns="http://www.w3.org/2000/svg">

 <g>
  <title>Layer 1</title>
  <path id="svg_8" d="m78.26923,-30.57692l44.42308,0" opacity="NaN" stroke="#32320F" fill="#fff"/>
  <path id="svg_18" d="m9.56044,25l0,0c0,-9.25532 6.91253,-16.75824 15.43956,-16.75824l0,0c4.09482,0 8.02194,1.76559 10.91742,4.90837c2.89548,3.14278 4.52214,7.4053 4.52214,11.84987l0,0c0,9.25532 -6.91253,16.75824 -15.43956,16.75824l0,0c-8.52703,0 -15.43956,-7.50292 -15.43956,-16.75824zm7.71978,0l0,0c0,4.62766 3.45627,8.37912 7.71978,8.37912c4.26352,0 7.71978,-3.75146 7.71978,-8.37912c0,-4.62766 -3.45626,-8.37912 -7.71978,-8.37912l0,0c-4.26351,0 -7.71978,3.75146 -7.71978,8.37912z" stroke="#000" fill="#fff"/>
 </g>
</svg>